<svg xmlns="http://www.w3.org/2000/svg" viewBox="0 0 512 512"><circle cx="256" cy="256" r="256" fill="#2d404e"/><path d="M512 256c0-51.363-15.124-99.191-41.165-139.275 0 0-14.604 21.334-11.86 35.047 2.742 13.715 18.855 14.762 17.2 24.822s-13.541-2.879-28.172 23.633c-14.63 26.514-7.312 63.096 13.714 65.834C482.744 268.797 512 256 512 256zM323.23 8.92c29.797 8.088 57.434 21.424 81.857 38.951 0 0-29.684-4.896-40.929 5.158-11.244 10.057-27.643 33.832-40.929 0-13.284-33.83.001-44.109.001-44.109zM63.519 87.219C110.437 33.754 179.275 0 256 0c0 0-17.368 10.516 15.546 28.344 32.915 17.83 17.828 26.057 10.971 31.543-6.856 5.486-18.749-10.971-26.517-21.941-7.769-10.973-41.132-27.885-66.734-18.74-25.601 9.145-47.539 15.9-43.885 24.408 3.653 8.506 47.539-7.945 63.996-7.035 16.457.912 10.971 10.967-4.569 22.854-15.542 11.887-17.374 26.514-.916 35.656 16.456 9.146 36.566 10.061 41.143 4.576 4.574-5.486-8.229-41.143 22.858-25.602s56.688 24.691 31.087 47.545c-25.602 22.852-54.857 48.461-55.773 63.084-.916 14.625 9.146 26.52 3.66 27.43-5.486.91-10.521-5.941-14.176-10.973-3.653-5.029-20.571-6.855-28.799-3.658-8.229 3.197-23.774 15.541-15.086 27.428 8.689 11.889 20.565 6.396 32.454 11.883 11.887 5.486 22.972 26.365 20.696 31.084-2.276 4.717-12.409-1.256-20.696-17.369-8.289-16.115-23.835-5.486-34.773-8.229-10.939-2.742-19.168-4.57-30.14-23.771-10.972-19.199-33.687-24.572-42.969-35.656-26.589-31.75-24.687-55.771-30.172-66.742-5.486-10.974-19.687-28.9-19.687-28.9zM280.685 259.658s27.429 2.738 41.143 14.627c13.714 11.887 15.546 16.461 36.573 21.031 21.027 4.568 30.172 16.451 16.457 39.311-13.714 22.857-38.404 59.43-50.287 70.402-11.882 10.973-26.512 20.115-31.998 38.4-5.485 18.283-7.317 29.248 4.57 36.568 0 0-6.396 15.545-21.026-4.57-14.631-20.117-2.744-43.885 0-57.6 2.742-13.713 10.055-54.852 5.484-64.914-4.568-10.059-25.601-16.461-31.087-37.486-5.486-21.026 4.115-61.944 30.171-55.769z" fill="#48b19b"/><path d="M74.98 74.983c99.975-99.977 262.062-99.975 362.038 0 99.976 99.973 99.976 262.062.001 362.037 0 0 116.148-153.59-48.293-318.031C224.284-45.453 74.98 74.983 74.98 74.983z" opacity=".6" fill="#253744"/></svg>